
  <svg xmlns="http://www.w3.org/2000/svg" width="758" height="360" viewBox="0 0 758 360" fill="none">
  <path d="M26 300L1 240H51L76 300L51 360H1L26 300Z" fill="white" fill-opacity="0.06"/>
  <path d="M117 300L92 240H142L167 300L142 360H92L117 300Z" fill="white" fill-opacity="0.06"/>
  <path d="M208 300L183 240H233L258 300L233 360H183L208 300Z" fill="white" fill-opacity="0.06"/>
  <path d="M299 300L274 240H324L349 300L324 360H274L299 300Z" fill="white" fill-opacity="0.06"/>
  <path d="M390 300L365 240H415L440 300L415 360H365L390 300Z" fill="white" fill-opacity="0.06"/>
  <path d="M481 300L456 240H506L531 300L506 360H456L481 300Z" fill="white" fill-opacity="0.06"/>
  <path d="M572 300L547 240H597L622 300L597 360H547L572 300Z" fill="white" fill-opacity="0.06"/>
  <path d="M663 300L638 240H688L713 300L688 360H638L663 300Z" fill="white" fill-opacity="0.06"/>
  <path d="M71 180L46 120H96L121 180L96 240H46L71 180Z" fill="white" fill-opacity="0.06"/>
  <path d="M162 180L137 120H187L212 180L187 240H137L162 180Z" fill="white" fill-opacity="0.06"/>
  <path d="M253 180L228 120H278L303 180L278 240H228L253 180Z" fill="white" fill-opacity="0.06"/>
  <path d="M344 180L319 120H369L394 180L369 240H319L344 180Z" fill="white" fill-opacity="0.06"/>
  <path d="M435 180L410 120H460L485 180L460 240H410L435 180Z" fill="white" fill-opacity="0.06"/>
  <path d="M526 180L501 120H551L576 180L551 240H501L526 180Z" fill="white" fill-opacity="0.06"/>
  <path d="M617 180L592 120H642L667 180L642 240H592L617 180Z" fill="white" fill-opacity="0.06"/>
  <path d="M708 180L683 120H733L758 180L733 240H683L708 180Z" fill="white" fill-opacity="0.06"/>
  <path d="M25 60L0 0H50L75 60L50 120H0L25 60Z" fill="white" fill-opacity="0.06"/>
  <path d="M116 60L91 0H141L166 60L141 120H91L116 60Z" fill="white" fill-opacity="0.06"/>
  <path d="M207 60L182 0H232L257 60L232 120H182L207 60Z" fill="white" fill-opacity="0.06"/>
  <path d="M298 60L273 0H323L348 60L323 120H273L298 60Z" fill="white" fill-opacity="0.06"/>
  <path d="M389 60L364 0H414L439 60L414 120H364L389 60Z" fill="white" fill-opacity="0.06"/>
  <path d="M480 60L455 0H505L530 60L505 120H455L480 60Z" fill="white" fill-opacity="0.06"/>
  <path d="M571 60L546 0H596L621 60L596 120H546L571 60Z" fill="white" fill-opacity="0.06"/>
  <path d="M662 60L637 0H687L712 60L687 120H637L662 60Z" fill="white" fill-opacity="0.06"/>
</svg>
