<svg xmlns="http://www.w3.org/2000/svg" width="795" height="795" viewBox="0 0 795 795" fill="none">
  <path d="M422 398C422 411.807 410.807 423 397 423C383.193 423 372 411.807 372 398C372 384.193 383.193 373 397 373C410.807 373 422 384.193 422 398Z" stroke="white" stroke-opacity="0.06" stroke-width="20"/>
  <path d="M472 398C472 439.421 438.421 473 397 473C355.579 473 322 439.421 322 398C322 356.579 355.579 323 397 323C438.421 323 472 356.579 472 398Z" stroke="white" stroke-opacity="0.06" stroke-width="20"/>
  <path d="M535 397.5C535 473.439 473.439 535 397.5 535C321.561 535 260 473.439 260 397.5C260 321.561 321.561 260 397.5 260C473.439 260 535 321.561 535 397.5Z" stroke="white" stroke-opacity="0.06" stroke-width="20"/>
  <path d="M597 398C597 508.457 507.457 598 397 598C286.543 598 197 508.457 197 398C197 287.543 286.543 198 397 198C507.457 198 597 287.543 597 398Z" stroke="white" stroke-opacity="0.06" stroke-width="20"/>
  <path d="M660 397.5C660 542.475 542.475 660 397.5 660C252.525 660 135 542.475 135 397.5C135 252.525 252.525 135 397.5 135C542.475 135 660 252.525 660 397.5Z" stroke="white" stroke-opacity="0.06" stroke-width="20"/>
  <path d="M722 398C722 577.493 576.493 723 397 723C217.507 723 72 577.493 72 398C72 218.507 217.507 73 397 73C576.493 73 722 218.507 722 398Z" stroke="white" stroke-opacity="0.06" stroke-width="20"/>
  <path d="M785 397.5C785 611.51 611.51 785 397.5 785C183.49 785 10 611.51 10 397.5C10 183.49 183.49 10 397.5 10C611.51 10 785 183.49 785 397.5Z" stroke="white" stroke-opacity="0.06" stroke-width="20"/>
</svg>